<svg width="24" height="24" viewBox="0 0 24 24" fill="none" xmlns="http://www.w3.org/2000/svg">
<path d="M20.2198 16.62C20.2198 17.47 19.5298 18.16 18.6798 18.16H5.31979C4.46979 18.16 3.77979 17.47 3.77979 16.62C3.77979 15.77 4.46979 15.08 5.31979 15.08H5.82977V9.94002C5.82977 6.54002 8.58979 3.77002 11.9998 3.77002C13.6998 3.77002 15.2398 4.46002 16.3598 5.58002C17.4798 6.69002 18.1698 8.23002 18.1698 9.94002V15.08H18.6798C19.5298 15.08 20.2198 15.77 20.2198 16.62Z" stroke="#2EAEBE" stroke-width="1.5" stroke-linecap="round" stroke-linejoin="round"/>
<path d="M12 3.78V2.75" stroke="#2EAEBE" stroke-width="1.5" stroke-linecap="round" stroke-linejoin="round"/>
<path d="M15.0799 18.17C15.0799 19.88 13.6999 21.25 11.9999 21.25C10.2999 21.25 8.91992 19.87 8.91992 18.17H15.0799Z" stroke="#2EAEBE" stroke-width="1.5" stroke-linecap="round" stroke-linejoin="round"/>
</svg>
