<svg width="24" height="24" viewBox="0 0 24 24" fill="none" xmlns="http://www.w3.org/2000/svg">
<path d="M19.773 18.0865C17.8919 16.4 15.1027 15.3406 12 15.3406C8.89732 15.3406 6.10813 16.4109 4.22705 18.0865" stroke="#90939B" stroke-width="1.5" stroke-linecap="round" stroke-linejoin="round"/>
<path d="M12.0001 12.0001C13.5345 12.0001 14.7784 10.7562 14.7784 9.22175C14.7784 7.68729 13.5345 6.44336 12.0001 6.44336C10.4656 6.44336 9.22168 7.68729 9.22168 9.22175C9.22168 10.7562 10.4656 12.0001 12.0001 12.0001Z" stroke="#90939B" stroke-width="1.5" stroke-linecap="round" stroke-linejoin="round"/>
<path d="M12 22C17.5228 22 22 17.5228 22 12C22 6.47715 17.5228 2 12 2C6.47715 2 2 6.47715 2 12C2 17.5228 6.47715 22 12 22Z" stroke="#90939B" stroke-width="1.5" stroke-linecap="round" stroke-linejoin="round"/>
</svg>
